<?xml version="1.0" encoding="utf-8"?>
<!-- Generator: Adobe Illustrator 21.0.0, SVG Export Plug-In . SVG Version: 6.00 Build 0)  -->
<svg version="1.1" id="Calque_1" xmlns="http://www.w3.org/2000/svg" xmlns:xlink="http://www.w3.org/1999/xlink" x="0px" y="0px"
	 viewBox="0 0 1000 1000" style="enable-background:new 0 0 1000 1000;" xml:space="preserve">
<style type="text/css">
	.st0{clip-path:url(#SVGID_2_);}
	.st1{clip-path:url(#SVGID_4_);fill:url(#SVGID_5_);}
	.st2{clip-path:url(#SVGID_7_);fill:url(#SVGID_8_);}
</style>
<g>
	<g>
		<g>
			<defs>
				<rect id="SVGID_1_" x="-806.7" y="-861.5" width="2613.4" height="2613.4"/>
			</defs>
			<clipPath id="SVGID_2_">
				<use xlink:href="#SVGID_1_"  style="overflow:visible;"/>
			</clipPath>
			<path class="st0" d="M1793.1-62.8c2.4-6.3,3.7-10.7,3.7-10.7L1793.1-62.8z"/>
		</g>
	</g>
	<g>
		<g>
			<defs>
				<polygon id="SVGID_3_" points="836.9,102.1 611.9,495.9 526.4,353.5 382.4,354 607.2,747.3 986.6,102.1 				"/>
			</defs>
			<clipPath id="SVGID_4_">
				<use xlink:href="#SVGID_3_"  style="overflow:visible;"/>
			</clipPath>
			
				<linearGradient id="SVGID_5_" gradientUnits="userSpaceOnUse" x1="-11.2665" y1="12.7553" x2="-8.6526" y2="12.7553" gradientTransform="matrix(231.1608 0 0 231.1608 2986.7642 -2523.95)">
				<stop  offset="0" style="stop-color:#17FC99"/>
				<stop  offset="0.659" style="stop-color:#07F7DF"/>
				<stop  offset="1" style="stop-color:#00F5FF"/>
			</linearGradient>
			<rect x="382.4" y="102.1" class="st1" width="604.2" height="645"/>
		</g>
	</g>
	<g>
		<g>
			<defs>
				<polygon id="SVGID_6_" points="13.4,97.4 497.4,931.6 572.9,803.8 227.7,225.4 525.6,225.4 611.9,372.6 692.3,225.4 770,97.4 
									"/>
			</defs>
			<clipPath id="SVGID_7_">
				<use xlink:href="#SVGID_6_"  style="overflow:visible;"/>
			</clipPath>
			
				<linearGradient id="SVGID_8_" gradientUnits="userSpaceOnUse" x1="-12" y1="12.9964" x2="-9.3863" y2="12.9964" gradientTransform="matrix(289.4794 0 0 289.4794 3487.1172 -3247.7266)">
				<stop  offset="0" style="stop-color:#17FC99"/>
				<stop  offset="0.659" style="stop-color:#07F7DF"/>
				<stop  offset="1" style="stop-color:#00F5FF"/>
			</linearGradient>
			<rect x="13.4" y="97.4" class="st2" width="756.6" height="834.2"/>
		</g>
	</g>
</g>
</svg>
